# Blender3D v246 OBJ File: 
# www.blender3d.org
mtllib basipodite5_left.mtl
o 5_left_leg_5_left.098
v -0.108334 0.054560 0.121474
v -0.077828 0.116546 0.154658
v -0.009180 0.075660 0.168260
v 0.065588 0.082275 -0.080329
v 0.029715 0.089907 -0.101027
v 0.104801 0.080901 -0.037508
v 0.122470 0.105257 0.014897
v -0.014835 0.084354 -0.107142
v -0.066585 0.112076 -0.047681
v 0.129076 0.102242 0.056106
v -0.094106 0.110941 -0.002585
v 0.107351 0.120195 0.084965
v -0.111974 0.096335 0.045534
v 0.076011 0.118975 0.125686
v -0.115050 0.069347 0.096085
v 0.028811 0.114918 0.157545
v 0.235834 -0.051801 -0.018409
v 0.205152 -0.043763 -0.023007
v 0.187820 -0.013185 -0.000612
v 0.234403 -0.050544 -0.032240
v 0.234187 -0.039158 -0.000492
v 0.235834 -0.051801 -0.018409
v 0.234187 -0.039158 -0.000492
v 0.230352 -0.077761 0.029697
v 0.183846 -0.085365 -0.059554
v 0.205075 -0.068519 -0.047977
v -0.137268 -0.061907 0.057022
v -0.144344 -0.045660 0.020610
v -0.153642 -0.054865 -0.028677
v -0.155794 -0.069245 -0.063270
v -0.115315 -0.080884 0.099042
v -0.129952 -0.058393 -0.097331
v -0.085357 -0.096566 0.125463
v -0.079117 -0.059533 -0.134247
v -0.030368 -0.085942 0.146083
v -0.044660 -0.091810 -0.165040
v 0.010519 -0.070924 0.150710
v 0.018896 -0.083172 -0.155238
v 0.059783 -0.047009 0.142881
v 0.088555 -0.111005 -0.130032
v 0.133910 -0.050747 0.103541
v 0.234403 -0.050544 -0.032240
v -0.100612 -0.005804 0.119937
v -0.121130 -0.017092 0.080102
v -0.115315 -0.080884 0.099042
v -0.137268 -0.061907 0.057022
v -0.115050 0.069347 0.096085
v -0.124855 0.014147 0.036589
v -0.144344 -0.045660 0.020610
v -0.153642 -0.054865 -0.028677
v 0.028811 0.114918 0.157545
v 0.059783 -0.047009 0.142881
v 0.133910 -0.050747 0.103541
v -0.077828 0.116546 0.154658
v -0.030368 -0.085942 0.146083
v -0.009180 0.075660 0.168260
v 0.010519 -0.070924 0.150710
v -0.014835 0.084354 -0.107142
v -0.010739 0.053476 -0.122645
v -0.094685 0.000689 -0.102494
v 0.029715 0.089907 -0.101027
v 0.122470 0.105257 0.014897
v 0.157371 0.034525 0.025404
v 0.104801 0.080901 -0.037508
v 0.123958 0.023838 -0.037825
v 0.144691 0.082320 0.070717
v 0.129076 0.102242 0.056106
v -0.115050 0.069347 0.096085
v -0.111974 0.096335 0.045534
v -0.124855 0.014147 0.036589
v -0.111371 0.045741 -0.004870
v -0.086066 0.051457 -0.058592
v -0.124939 -0.006037 -0.062518
v -0.094106 0.110941 -0.002585
v -0.066585 0.112076 -0.047681
v -0.094685 0.000689 -0.102494
v -0.056824 0.057544 -0.090262
v -0.014835 0.084354 -0.107142
v -0.111371 0.045741 -0.004870
v -0.153642 -0.054865 -0.028677
v -0.124855 0.014147 0.036589
v -0.124939 -0.006037 -0.062518
v -0.155794 -0.069245 -0.063270
v -0.094685 0.000689 -0.102494
v -0.129952 -0.058393 -0.097331
v -0.079117 -0.059533 -0.134247
v -0.010739 0.053476 -0.122645
v -0.050238 -0.023440 -0.130964
v -0.044660 -0.091810 -0.165040
v 0.156986 0.001653 -0.017019
v 0.134377 -0.034030 -0.064806
v 0.123958 0.023838 -0.037825
v 0.205152 -0.043763 -0.023007
v 0.157371 0.034525 0.025404
v 0.187820 -0.013185 -0.000612
v 0.195215 -0.010748 0.026095
v 0.187820 -0.013185 -0.000612
v 0.157371 0.034525 0.025404
v 0.157346 0.036646 0.053311
v 0.144691 0.082320 0.070717
v 0.107351 0.120195 0.084965
v 0.129076 0.102242 0.056106
v 0.167873 0.005184 0.061192
v 0.133910 -0.050747 0.103541
v 0.028811 0.114918 0.157545
v 0.076011 0.118975 0.125686
v 0.234187 -0.039158 -0.000492
v 0.230352 -0.077761 0.029697
v -0.010739 0.053476 -0.122645
v -0.005161 -0.012038 -0.134241
v -0.050238 -0.023440 -0.130964
v -0.044660 -0.091810 -0.165040
v 0.018896 -0.083172 -0.155238
v 0.024940 0.007518 -0.124879
v 0.029715 0.089907 -0.101027
v 0.065764 -0.004208 -0.104664
v 0.088555 -0.111005 -0.130032
v 0.183846 -0.085365 -0.059554
v 0.205152 -0.043763 -0.023007
v 0.205075 -0.068519 -0.047977
v 0.065588 0.082275 -0.080329
v 0.123958 0.023838 -0.037825
v 0.134377 -0.034030 -0.064806
v 0.104801 0.080901 -0.037508
v 0.234403 -0.050544 -0.032240
v -0.100612 -0.005804 0.119937
v -0.085357 -0.096566 0.125463
v -0.073006 -0.020128 0.138080
v -0.077828 0.116546 0.154658
v -0.115315 -0.080884 0.099042
v -0.030368 -0.085942 0.146083
v -0.077828 0.116546 0.154659
v -0.108334 0.054560 0.121474
v -0.100612 -0.005804 0.119937
v -0.121130 -0.017092 0.080102
v -0.115050 0.069347 0.096085
vt 0.000000 0.000000
vt 1.000000 0.000000
vt 1.000000 1.000000
vt 0.000000 1.000000
vt 0.750201 0.246544
vt 0.748620 0.246886
vt 0.749876 0.245396
vt 0.750223 0.243363
vt 0.748940 0.246882
vt 0.838219 0.208557
vt 0.838090 0.207095
vt 0.837510 0.203796
vt 0.837382 0.203406
vt 0.838296 0.220194
vt 0.835305 0.209788
vt 0.835049 0.202925
vt 0.829371 0.197266
vt 0.688500 0.391577
vt 0.702578 0.384001
vt 0.705764 0.382938
vt 0.684962 0.382541
vt 0.703674 0.373860
vt 0.690919 0.385601
vt 0.704261 0.379076
vt 0.278666 0.674329
vt 0.279205 0.671395
vt 0.279810 0.670393
vt 0.273010 0.673422
vt 0.489083 0.539247
vt 0.489771 0.537654
vt 0.489202 0.543975
vt 0.489735 0.539425
vt 0.488082 0.532466
vt 0.487961 0.532301
vt 0.083184 0.122129
vt 0.082245 0.121112
vt 0.081648 0.115778
vt 0.080342 0.111440
vt 0.073558 0.105834
vt 0.076607 0.100682
vt 0.077173 0.117789
vt 0.071627 0.112663
vt 0.072285 0.100299
vt 0.070130 0.105782
vt 0.069429 0.107927
vt 0.217624 0.104539
vt 0.219456 0.104578
vt 0.216150 0.104706
vt 0.220185 0.102868
vt 0.209843 0.103558
vt 0.216381 0.098796
vt 0.210142 0.091968
vt 0.202034 0.103877
vt 0.208864 0.096154
vt 0.209591 0.089506
vt 0.671899 0.523295
vt 0.672475 0.519680
vt 0.672683 0.527450
vt 0.672056 0.518271
vt 0.667069 0.528064
vt 0.668747 0.520867
vt 0.740697 0.080116
vt 0.741863 0.082764
vt 0.733869 0.080321
vt 0.731977 0.080234
vt 0.726294 0.082516
vt 0.720657 0.078036
vt 0.725951 0.083077
vt 0.734935 0.079337
vt 0.735690 0.067435
vt 0.710616 0.067588
vt 0.716643 0.071370
vt 0.742357 0.084164
vt 0.741283 0.082755
vt 0.591246 0.619917
vt 0.592285 0.615621
vt 0.592016 0.615041
vt 0.590737 0.612722
vt 0.589937 0.611271
vt 0.591641 0.615346
vt 0.585714 0.623072
vt 0.585800 0.613689
vt 0.584914 0.601742
vt 0.573178 0.605747
vt 0.572684 0.605827
vt 0.572243 0.606054
vt 0.582196 0.624397
vt 0.573657 0.617291
vt 0.575689 0.608923
vt 0.575079 0.624053
vt 0.572476 0.604938
vt 0.983387 0.216951
vt 0.982334 0.205867
vt 0.985861 0.214591
vt 0.990484 0.232912
vt 0.978942 0.206847
vt 0.982747 0.206257
vt 0.959717 0.271418
vt 0.959837 0.262726
vt 0.959636 0.253069
vt 0.958906 0.252869
vt 0.956088 0.263114
vn 0.994440 -0.017594 0.103829
vn 0.688233 -0.659445 -0.302436
vn -0.982327 -0.008815 0.186964
vn -0.801751 -0.576222 0.158629
vn -0.955281 -0.247241 0.162205
vn 0.235924 -0.963316 -0.127915
vn -0.410905 -0.908715 -0.073449
vn -0.125861 -0.981686 -0.143007
vn 0.235412 -0.962938 -0.131653
vn -0.597171 -0.786719 0.156396
vn 0.355729 -0.922670 -0.148782
vn 0.128001 -0.990834 0.043170
vn 0.442376 -0.895546 0.047963
vn -0.417010 -0.893688 0.165603
vn 0.075962 -0.968967 0.235227
vn 0.088522 -0.968518 0.232673
vn -0.149826 -0.975487 0.161175
vn 0.568682 -0.811799 -0.132602
vn 0.660346 -0.689749 -0.296967
vn 0.354148 0.299910 -0.885795
vn 0.362787 0.880906 -0.303956
vn 0.305422 0.819991 -0.484078
vn -0.160501 0.933028 0.322021
vn 0.138689 0.938314 -0.316753
vn 0.012483 0.997400 0.070969
vn -0.044903 0.998989 -0.002269
vn 0.243223 0.895084 -0.373722
vn -0.206000 0.955001 0.213393
vn -0.044141 0.999017 -0.004024
vn -0.428823 0.807512 0.405013
vn -0.106420 0.993834 -0.031124
vn -0.410401 0.736604 0.537573
vn -0.465853 0.622473 0.628895
vn 0.278119 0.665169 -0.692964
vn 0.244125 0.967717 0.062670
vn 0.425528 0.757363 -0.495305
vn -0.893653 0.050916 0.445862
vn -0.872251 0.064426 0.484795
vn -0.991727 0.047722 0.119161
vn -0.941539 0.199076 0.271795
vn -0.938018 0.238468 0.251506
vn -0.952533 0.276163 0.128122
vn 0.469140 0.009764 0.883070
vn -0.250042 -0.099390 0.963120
vn 0.299145 -0.029153 0.953762
vn 0.198834 -0.090123 0.975881
vn -0.065248 -0.127269 0.989720
vn -0.425769 0.360247 -0.830026
vn 0.065263 0.454632 -0.888285
vn 0.829659 0.344067 -0.439640
vn 0.828177 0.280720 -0.485097
vn 0.891861 0.412508 -0.185529
vn 0.814477 0.573388 -0.088615
vn -0.988068 0.152537 0.021311
vn -0.967827 0.171702 -0.183926
vn -0.778156 0.547186 -0.308318
vn -0.929101 0.255399 -0.267475
vn -0.831753 0.237829 -0.501621
vn -0.863048 0.343945 -0.369931
vn -0.721329 0.519024 -0.458583
vn -0.663343 0.550729 -0.506630
vn -0.722522 0.340501 -0.601682
vn -0.563385 0.443480 -0.697081
vn -0.583495 0.522344 -0.621844
vn -0.921587 0.388152 -0.003944
vn -0.895593 0.414518 -0.161521
vn -0.890895 0.436387 -0.125983
vn -0.759412 0.409096 -0.505899
vn -0.788999 0.390784 -0.474098
vn -0.562294 0.267256 -0.782560
vn -0.395427 0.297069 -0.869130
vn -0.355113 0.362525 -0.861667
vn -0.386997 0.385836 -0.837474
vn 0.667182 0.410073 -0.621859
vn 0.470337 0.585845 -0.659976
vn 0.675997 0.579513 -0.455184
vn 0.573311 0.670181 -0.471351
vn 0.577255 0.642920 -0.503419
vn 0.742442 0.616615 -0.261851
vn 0.961516 0.274022 -0.019966
vn 0.766726 0.640180 -0.047970
vn 0.730356 0.669992 0.133011
vn 0.804943 0.382866 0.453300
vn 0.951088 0.296530 -0.086611
vn 0.691300 0.119767 0.712573
vn 0.552885 0.080398 0.829370
vn 0.690287 0.475307 0.545515
vn 0.660680 0.128895 0.739518
vn 0.478202 0.852715 -0.210237
vn 0.656204 0.733192 0.178397
vn 0.752957 0.357352 0.552589
vn 0.629768 0.188222 0.753635
vn -0.112696 0.163870 -0.980024
vn -0.172764 0.428045 -0.887091
vn 0.102989 0.313476 -0.943995
vn 0.179418 0.186255 -0.965980
vn 0.268341 0.253511 -0.929368
vn 0.426968 0.294221 -0.855063
vn 0.092481 0.310530 -0.946054
vn 0.486177 0.248089 -0.837904
vn -0.177092 0.699186 -0.692659
vn 0.450762 0.447607 -0.772309
vn 0.522681 0.231907 -0.820380
vn 0.482610 0.217641 -0.848363
vn 0.585752 0.426739 -0.689049
vn 0.573754 0.303168 -0.760852
vn 0.510813 0.358159 -0.781532
vn 0.727432 0.187235 -0.660141
vn 0.682873 0.233090 -0.692353
vn -0.057441 0.709054 -0.702811
vn -0.564770 -0.044753 0.824034
vn -0.587362 -0.117842 0.800699
vn -0.680166 -0.069891 0.729718
vn -0.332115 -0.101124 0.937802
vn -0.365717 -0.124775 0.922324
vn -0.631944 -0.100404 0.768483
vn -0.867578 -0.123249 0.481787
vn -0.963842 0.018641 0.265820
usemtl 5_left_leg_10.003
s off
f 22/1/1 23/2/1 24/3/1
f 25/1/2 26/2/2 24/3/2
f 27/1/3 28/2/3 29/3/3
f 30/1/4 31/4/4 27/3/4
f 30/1/5 27/3/5 29/2/5
f 30/1/6 32/4/6 31/2/6
f 32/4/7 33/3/7 31/2/7
f 32/1/8 34/4/8 33/2/8
f 34/4/9 35/3/9 33/2/9
f 34/1/10 36/4/10 37/3/10
f 34/1/11 37/3/11 35/2/11
f 36/1/12 38/4/12 37/2/12
f 38/4/13 39/3/13 37/2/13
f 38/1/14 40/4/14 39/2/14
f 40/4/15 41/3/15 39/2/15
f 40/1/16 25/2/16 41/4/16
f 25/2/17 24/3/17 41/4/17
f 42/2/18 22/3/18 26/1/18
f 26/1/19 22/3/19 24/4/19
usemtl 5_left_leg_6.001
f 1/1/20 2/2/20 3/3/20
f 4/1/21 5/3/21 6/2/21
f 7/1/22 6/4/22 8/2/22
f 6/4/23 5/3/23 8/2/23
f 7/1/24 8/2/24 9/3/24
f 7/1/25 9/3/25 10/4/25
f 11/1/26 12/4/26 9/2/26
f 12/4/27 10/3/27 9/2/27
f 13/1/28 14/4/28 11/2/28
f 14/4/29 12/3/29 11/2/29
f 13/1/30 15/2/30 16/3/30
f 13/1/31 16/3/31 14/4/31
f 15/1/32 1/2/32 3/3/32
f 15/1/33 3/3/33 16/4/33
usemtl 5_left_leg_1_5_le.005_5_leg.png
f 17/5/34 18/6/34 19/7/34
f 17/5/35 20/8/35 18/6/35
f 21/9/36 17/5/36 19/7/36
usemtl 5_left_leg_12_5_l.005_5_leg.png
f 43/10/37 44/11/37 45/12/37
f 44/11/38 46/13/38 45/12/38
f 47/14/39 48/15/39 44/11/39
f 44/11/40 49/16/40 46/13/40
f 44/11/41 48/15/41 49/16/41
f 49/16/42 48/15/42 50/17/42
usemtl 5_left_leg_0_5_le.005_5_leg.png
f 51/18/43 52/19/43 53/20/43
f 54/21/44 55/22/44 56/23/44
f 52/19/45 51/18/45 56/23/45
f 57/24/46 52/19/46 56/23/46
f 55/22/47 57/24/47 56/23/47
usemtl 5_left_leg_7_5_le.003_5_leg.png
f 58/25/48 59/26/48 60/27/48
f 58/25/49 61/28/49 59/26/49
usemtl 5_left_leg_4_5_le.003_5_leg.png
f 62/29/50 63/30/50 64/31/50
f 63/30/51 65/32/51 64/31/51
f 62/29/52 66/33/52 63/30/52
f 66/33/53 62/29/53 67/34/53
usemtl 5_left_leg_11_5_l.005_5_leg.png
f 68/35/54 69/36/54 70/37/54
f 69/36/55 71/38/55 70/37/55
f 71/38/56 72/39/56 73/40/56
f 69/36/57 74/41/57 71/38/57
f 71/38/58 74/41/58 75/42/58
f 71/38/59 75/42/59 72/39/59
f 73/40/60 72/39/60 76/43/60
f 72/39/61 77/44/61 76/43/61
f 75/42/62 77/44/62 72/39/62
f 75/42/63 78/45/63 77/44/63
f 77/44/64 78/45/64 76/43/64
usemtl 5_left_leg_10_5_l.005_5_leg.png
f 79/46/65 80/47/65 81/46/65
f 80/47/66 79/46/66 82/48/66
f 80/47/67 82/48/67 83/49/67
f 82/48/68 84/50/68 85/51/68
f 83/49/69 82/48/69 85/51/69
f 85/51/70 84/50/70 86/52/70
f 84/50/71 87/53/71 88/54/71
f 84/50/72 88/54/72 86/52/72
f 88/54/73 89/55/73 86/52/73
usemtl 5_left_leg_5_5_le.003_5_leg.png
f 90/56/74 91/57/74 92/58/74
f 90/56/75 93/59/75 91/57/75
f 94/60/76 90/56/76 92/58/76
f 93/59/77 90/56/77 95/61/77
f 95/61/78 90/56/78 94/60/78
usemtl 5_left_leg_2_5_le.005_5_leg.png
f 96/62/79 97/63/79 98/64/79
f 99/65/80 98/64/80 100/66/80
f 99/65/81 96/62/81 98/64/81
f 101/67/82 100/66/82 102/68/82
f 103/69/83 96/62/83 99/65/83
f 100/66/84 103/69/84 99/65/84
f 104/70/85 103/69/85 100/66/85
f 105/71/86 104/70/86 106/72/86
f 101/67/87 106/72/87 100/66/87
f 106/72/88 104/70/88 100/66/88
f 96/62/89 107/73/89 97/63/89
f 107/73/90 96/62/90 103/69/90
f 103/69/91 108/74/91 107/73/91
f 104/70/92 108/74/92 103/69/92
usemtl 5_left_leg_6_5_le.004_5_leg.png
f 109/75/93 110/76/93 111/77/93
f 111/77/94 110/76/94 112/78/94
f 110/76/95 113/79/95 112/78/95
f 109/75/96 114/80/96 110/76/96
f 114/80/97 109/75/97 115/81/97
f 116/82/98 117/83/98 113/79/98
f 114/80/99 113/79/99 110/76/99
f 114/80/100 116/82/100 113/79/100
f 118/84/101 119/85/101 120/86/101
f 119/85/102 118/84/102 117/83/102
f 121/87/103 116/82/103 115/81/103
f 115/81/104 116/82/104 114/80/104
f 122/88/105 123/89/105 116/82/105
f 116/82/106 123/89/106 117/83/106
f 119/85/107 117/83/107 123/89/107
f 121/87/108 124/90/108 116/82/108
f 124/90/109 122/88/109 116/82/109
f 125/91/110 120/86/110 119/85/110
usemtl 5_left_leg_14_5_l.004_5_leg.png
f 126/92/111 127/93/111 128/94/111
f 126/92/112 128/94/112 129/95/112
f 126/92/113 130/96/113 127/93/113
f 127/93/114 131/97/114 128/94/114
f 128/94/115 131/97/115 129/95/115
usemtl 5_left_leg_13_5_l.005_5_leg.png
f 132/98/116 133/99/116 134/100/116
f 134/100/117 133/99/117 135/101/117
f 133/99/118 136/102/118 135/101/118
