# Blender3D v246 OBJ File: 
# www.blender3d.org
mtllib dactylopodite5_right_collision.mtl
o 5_left_leg_5_left.048
v 0.049874 0.203537 -0.010268
v 0.037279 0.174149 -0.022953
v 0.031952 0.150263 0.003823
v 0.016039 0.172890 0.007472
v -0.019407 0.051828 0.018247
v -0.055630 0.150220 -0.012051
v -0.033131 0.186493 -0.017828
v -0.035308 0.183340 -0.030014
v -0.057280 0.121996 -0.043795
v -0.012250 0.184900 -0.041489
v -0.000719 0.211340 -0.020112
v -0.007022 0.213308 -0.029494
v 0.044645 -0.087240 0.012686
v 0.092761 -0.132689 0.004332
v 0.054109 -0.117298 0.014780
v 0.034479 -0.067937 -0.010112
v 0.094710 -0.119594 -0.010909
v -0.006927 -0.093437 0.011642
v 0.044070 -0.101558 0.004361
v 0.038561 -0.105082 -0.073026
v 0.079891 -0.133907 -0.077042
v 0.081131 -0.114681 -0.048644
v 0.042021 -0.087934 -0.057616
v 0.050014 -0.083407 -0.033176
v 0.024082 -0.075193 0.005123
v 0.001347 -0.040039 -0.078838
v 0.020919 -0.075362 -0.069600
v 0.021123 -0.047998 -0.046928
v 0.029919 -0.128894 -0.083464
v 0.009529 -0.095294 -0.076601
v -0.017723 -0.122948 -0.072616
v 0.014283 -0.022811 -0.030776
v 0.060618 -0.131803 -0.082561
v 0.011256 -0.034294 -0.002100
v 0.069964 -0.130839 -0.078875
v 0.001863 -0.072751 0.011357
v -0.003919 0.013324 -0.070363
v 0.049874 0.203537 -0.010268
v 0.017063 0.204603 -0.032500
v 0.037279 0.174149 -0.022953
v 0.007464 0.140364 -0.048023
v -0.057280 0.121996 -0.043795
v -0.012250 0.184900 -0.041489
v -0.022045 -0.135417 0.010804
v -0.001781 -0.186066 0.029552
v -0.072397 -0.178407 -0.002203
v 0.054109 -0.117298 0.014780
v -0.006927 -0.093437 0.011642
v -0.000719 0.211340 -0.020112
v -0.047108 -0.110381 0.004744
v -0.007022 0.213308 -0.029494
v 0.092761 -0.132689 0.004332
v 0.071589 -0.177808 0.029311
v 0.014283 -0.022811 -0.030776
v 0.011256 -0.034294 -0.002100
v 0.010312 0.033350 -0.004239
v -0.001057 0.037836 0.012977
v 0.037279 0.174149 -0.022953
v 0.017815 0.116884 -0.041100
v 0.033878 0.128317 -0.003683
v 0.031952 0.150263 0.003823
v -0.002321 0.051483 -0.049444
v -0.003919 0.013324 -0.070363
v 0.010112 0.036742 -0.027598
v 0.017815 0.116884 -0.041100
v 0.037279 0.174149 -0.022953
v 0.007464 0.140364 -0.048023
v -0.002321 0.051483 -0.049444
v -0.003919 0.013324 -0.070363
v -0.002321 0.051483 -0.049444
v -0.028697 0.049114 -0.055787
v 0.007464 0.140364 -0.048023
v -0.016107 -0.100220 0.015893
v -0.006927 -0.093437 0.011642
v -0.032459 -0.102861 0.014587
v -0.047108 -0.110381 0.004744
v -0.020423 -0.110197 0.020388
v -0.028156 -0.084626 0.025828
v -0.070791 -0.071084 -0.009985
v 0.001347 -0.040039 -0.078838
v -0.087157 -0.076430 -0.046250
v -0.017723 -0.122948 -0.072616
v -0.085428 -0.042925 -0.031390
v -0.088494 -0.133234 -0.032000
v -0.011581 -0.089589 0.017344
v -0.001057 0.037836 0.012977
v 0.011256 -0.034294 -0.002100
v -0.012953 -0.035986 0.018606
v 0.001863 -0.072751 0.011357
v -0.052896 -0.003540 -0.056306
v -0.081928 0.038768 -0.031276
v -0.082031 -0.140229 -0.045476
v -0.066698 0.106387 -0.039827
v -0.057280 0.121996 -0.043795
v -0.057342 0.109807 -0.012252
v -0.055630 0.150220 -0.012051
v -0.070458 0.010380 -0.003725
v -0.019407 0.051828 0.018247
v -0.030796 -0.008606 0.019795
v -0.072397 -0.178407 -0.002203
v 0.031952 0.150263 0.003823
v 0.094710 -0.119594 -0.010909
v 0.084680 -0.110718 -0.026385
v 0.092761 -0.132689 0.004332
v -0.016107 -0.100220 0.015893
v -0.011581 -0.089589 0.017344
v -0.006927 -0.093437 0.011642
v 0.079891 -0.133907 -0.077042
v 0.081131 -0.114681 -0.048644
v 0.060618 -0.131803 -0.082561
v 0.071589 -0.177808 0.029311
v 0.029919 -0.128894 -0.083464
v -0.001781 -0.186066 0.029552
v -0.017723 -0.122948 -0.072616
v -0.072397 -0.178407 -0.002203
v -0.082031 -0.140229 -0.045476
v -0.088494 -0.133234 -0.032000
v 0.081131 -0.114681 -0.048644
v 0.084680 -0.110718 -0.026385
v 0.050014 -0.083407 -0.033176
v 0.034479 -0.067937 -0.010112
v 0.094710 -0.119594 -0.010909
vt 0.268295 0.016357
vt 0.264381 0.014011
vt 0.264163 0.013822
vt 0.267419 0.000059
vt 0.279782 0.021129
vt 0.280617 0.018487
vt 0.281554 0.018494
vt 0.283230 0.023237
vt 0.284408 0.020563
vt 0.279630 0.024173
vt 0.279074 0.019112
vt 0.278636 0.028159
vt 0.284516 0.037642
vt 0.274991 0.024135
vt 0.284559 0.035425
vt 0.280320 0.021382
vt 0.267662 0.011244
vt 0.280187 0.011038
vt 0.280544 0.012081
vt 0.279073 0.030239
vt 0.271746 0.017482
vt 0.266983 0.014379
vt 0.284990 0.036416
vt 0.260835 0.005417
vt 0.267003 0.000351
vt 0.262959 0.002836
vt 0.260549 0.003755
vt 0.272298 0.014027
vt 0.271637 0.001970
vt 0.277409 0.010424
vt 0.289751 0.038071
vt 0.267546 0.000000
vt 0.263626 0.160464
vt 0.263745 0.161700
vt 0.263728 0.167091
vt 0.265297 0.159403
vt 0.270275 0.175076
vt 0.264586 0.173766
vt 0.260726 0.166660
vt 0.260549 0.167158
vt 0.265519 0.176498
vt 0.264312 0.162509
vt 0.264718 0.164487
vt 0.263797 0.161385
vt 0.882296 0.802805
vt 0.871975 0.785181
vt 0.881186 0.802868
vt 0.881667 0.805449
vt 0.871957 0.785239
vt 0.881816 0.806655
vt 0.872252 0.804656
vt 0.871401 0.805544
vt 0.867292 0.799409
vt 0.870500 0.802935
vt 0.874378 0.806436
vt 0.878400 0.806304
vt 0.881113 0.806562
vt 0.879317 0.813180
vt 0.874854 0.809889
vt 0.879660 0.811339
vt 0.868400 0.804473
vt 0.872057 0.809171
vt 0.869943 0.807083
vt 0.883580 0.813185
vt 0.867812 0.801435
vt 0.884461 0.808709
vt 0.867755 0.800526
vt 0.881947 0.806565
vt 0.881058 0.818672
vt 0.265869 0.322164
vt 0.262993 0.328946
vt 0.261608 0.324855
vt 0.261423 0.332986
vt 0.264325 0.335675
vt 0.261852 0.333959
vt 0.290837 0.360766
vt 0.297253 0.361402
vt 0.293717 0.363967
vt 0.291109 0.346756
vt 0.288163 0.357459
vt 0.263808 0.328469
vt 0.288500 0.362935
vt 0.260549 0.328359
vt 0.292718 0.343074
vt 0.296058 0.348334
vt 0.111991 0.722923
vt 0.113182 0.718788
vt 0.117127 0.726827
vt 0.114365 0.732520
vt 0.127253 0.744262
vt 0.122461 0.741734
vt 0.126401 0.739095
vt 0.129415 0.740470
vt 0.114705 0.734530
vt 0.110778 0.727404
vt 0.115329 0.729783
vt 0.253097 0.703150
vt 0.260549 0.708623
vt 0.254543 0.707257
vt 0.248654 0.700880
vt 0.000000 0.000000
vt 1.000000 0.000000
vt 1.000000 1.000000
vt 0.000000 1.000000
vt 0.952446 0.806998
vt 0.955282 0.805203
vt 0.958601 0.811485
vt 0.959565 0.809397
vt 0.955749 0.803162
vn -0.166520 -0.468615 0.867566
vn -0.234665 0.010296 0.972022
vn -0.166415 0.675394 0.718435
vn -0.358347 0.918298 -0.168273
vn -0.143934 0.457601 0.877431
vn 0.565923 0.331706 -0.754786
vn 0.337688 0.434873 -0.834777
vn 0.660647 0.120437 -0.740973
vn 0.349126 -0.009976 0.937023
vn 0.894206 0.142123 -0.424495
vn 0.911397 -0.120181 -0.393589
vn -0.919517 0.392903 -0.010709
vn -0.651160 0.047184 -0.757472
vn -0.641705 -0.108942 -0.759175
vn 0.322075 -0.157227 0.933567
vn 0.311548 -0.118998 0.942750
vn 0.359898 -0.040575 0.932109
vn -0.441312 0.057039 -0.895539
vn 0.998889 -0.042774 -0.019797
vn -0.446175 0.038379 -0.894123
vn -0.650568 0.266657 -0.711095
vn 0.914144 0.078271 0.397761
vn 0.813684 -0.111109 0.570590
vn 0.177922 -0.091432 0.979788
vn 0.483682 -0.070055 0.872436
vn 0.927016 -0.244732 -0.284162
vn 0.433762 -0.080074 0.897462
vn 0.711370 -0.033634 0.702012
vn 0.461634 -0.101416 -0.881254
vn 0.844925 -0.155356 -0.511826
vn 0.467273 -0.110522 -0.877178
vn -0.258962 0.024082 -0.965587
vn 0.907891 -0.038321 -0.417451
vn -0.145464 -0.051888 -0.988002
vn 0.847058 0.037273 -0.530192
vn -0.194502 -0.084311 -0.977272
vn 0.635370 -0.039135 -0.771216
vn 0.531120 0.062752 -0.844970
vn -0.434935 0.002242 -0.900459
vn 0.438492 -0.071519 -0.895885
vn 0.844054 -0.051333 -0.533795
vn 0.378955 0.041660 0.924477
vn 0.099498 -0.123433 0.987352
vn 0.842442 -0.423649 0.332884
vn 0.947723 -0.038563 -0.316757
vn -0.274440 0.002281 -0.961602
vn -0.930281 0.345547 0.123185
vn -0.376391 -0.116478 -0.919110
vn 0.309651 -0.173864 -0.934820
vn 0.348477 -0.354369 -0.867748
vn 0.848643 -0.528758 -0.014832
vn 0.877613 -0.379990 0.292238
vn 0.436978 -0.343285 0.831388
vn -0.243669 -0.014967 -0.969743
vn 0.074263 -0.559745 -0.825331
vn 0.427366 -0.417295 0.802012
vn 0.725979 -0.686055 0.047776
vn 0.508326 -0.708119 -0.490074
vn 0.299146 -0.466717 -0.832278
vn -0.318111 -0.165194 -0.933550
vn -0.529817 -0.608626 -0.590651
vn -0.207133 -0.628417 -0.749792
vn 0.853127 0.236199 -0.465172
vn -0.457283 -0.727030 0.512172
vn -0.583375 -0.742855 0.328390
vn -0.510443 -0.515497 0.688267
vn -0.259687 -0.791001 -0.553967
vn -0.832972 -0.349305 0.429119
vn -0.222097 -0.322713 0.920070
vn -0.193419 -0.224899 0.954992
vn 0.213197 -0.069680 0.974521
vn -0.632657 -0.491271 0.598664
vn -0.787624 -0.506171 0.351338
vn -0.926207 -0.346636 0.148271
vn -0.063253 -0.381326 0.922274
vn -0.627951 -0.446254 0.637601
vn -0.757939 -0.647892 -0.075929
vn -0.819124 -0.497419 -0.285676
vn -0.286923 -0.523206 0.802453
vn 0.291507 0.433838 -0.852531
vn -0.698494 -0.331098 -0.634414
vn 0.090876 0.053731 0.994412
vn -0.477867 -0.035217 0.877726
vn -0.287058 -0.253184 -0.923848
vn -0.856340 -0.162362 0.490225
vn -0.934325 -0.333834 0.124870
vn -0.685800 -0.676904 -0.267354
vn 0.517975 0.414313 -0.748363
vn -0.154636 -0.088797 -0.983973
vn -0.259023 0.096833 -0.961005
vn -0.559794 -0.114327 0.820707
vn -0.560075 -0.114585 0.820480
vn 0.094062 -0.103628 0.990158
vn 0.387150 -0.179844 -0.904307
vn -0.154799 -0.210145 0.965337
vn 0.051832 0.001278 -0.998655
vn -0.193394 -0.951364 0.239803
vn 0.243165 0.008659 -0.969946
vn 0.188795 -0.048401 -0.980823
vn 0.121131 -0.301599 -0.945709
vn -0.024069 -0.385117 0.922554
vn -0.336616 -0.941205 0.028681
vn -0.362607 -0.315349 -0.876967
vn 0.022385 -0.227329 -0.973561
vn -0.993572 -0.017389 -0.111859
vn -0.837564 -0.028927 -0.545573
vn -0.920268 0.207710 0.331608
vn -0.733303 0.161525 -0.660436
vn -0.902024 -0.177861 0.393343
vn -0.932254 -0.084069 0.351901
vn -0.997561 -0.069784 -0.001571
vn -0.792801 0.200100 -0.575696
vn -0.969717 0.240375 0.043228
vn -0.978070 -0.014775 -0.207754
vn -0.924369 0.148075 0.351591
vn -0.801005 0.173513 0.572961
vn -0.616294 -0.039767 0.786512
vn -0.491010 0.040145 0.870228
vn -0.274723 0.746397 0.606151
vn -0.594646 0.351822 -0.722923
vn -0.977604 -0.140463 0.156720
vn -0.956010 -0.221832 0.191926
vn -0.790200 0.535648 0.297766
vn 0.117948 0.992454 -0.033505
vn -0.099765 0.898859 0.426731
vn 0.076659 0.924751 0.372773
vn 0.216699 0.845287 0.488396
vn -0.151208 0.830239 0.536506
vn 0.877311 0.439614 0.192521
vn 0.071578 0.755807 0.650870
vn -0.629596 -0.741357 0.232376
vn -0.627511 -0.772712 0.095638
vn -0.651064 -0.758906 -0.013317
usemtl 5_left_leg_2_5_le.002_5_leg.png
s off
f 69/1/1 70/2/1 71/3/1
f 71/3/2 70/2/2 72/4/2
f 73/5/3 74/6/3 75/7/3
f 74/6/4 76/8/4 75/7/4
f 77/7/5 73/5/5 75/7/5
f 77/7/6 75/7/6 78/9/6
f 78/9/7 75/7/7 76/8/7
f 78/9/8 76/8/8 79/10/8
f 80/11/9 81/12/9 82/13/9
f 83/14/10 79/10/10 81/12/10
f 79/10/11 84/15/11 81/12/11
f 77/7/12 85/16/12 73/5/12
f 86/17/13 87/18/13 88/19/13
f 88/19/14 87/18/14 89/20/14
f 90/21/15 69/1/15 71/3/15
f 80/11/16 69/1/16 90/21/16
f 90/21/17 81/12/17 80/11/17
f 78/9/18 85/16/18 77/7/18
f 91/22/19 83/14/19 81/12/19
f 78/9/20 89/20/20 85/16/20
f 89/20/21 74/6/21 85/16/21
f 92/23/22 81/12/22 84/15/22
f 81/12/23 93/24/23 91/22/23
f 94/25/24 90/21/24 71/3/24
f 94/25/25 93/24/25 90/21/25
f 93/24/26 95/26/26 91/22/26
f 93/24/27 81/12/27 90/21/27
f 96/27/28 97/28/28 95/26/28
f 98/29/29 97/28/29 96/27/29
f 91/22/30 95/26/30 97/28/30
f 98/29/31 99/30/31 97/28/31
f 98/29/32 86/17/32 99/30/32
f 97/28/33 83/14/33 91/22/33
f 99/30/34 86/17/34 88/19/34
f 97/28/35 79/10/35 83/14/35
f 99/30/36 88/19/36 78/9/36
f 78/9/37 79/10/37 99/30/37
f 97/28/38 99/30/38 79/10/38
f 88/19/39 89/20/39 78/9/39
f 79/10/40 76/8/40 100/31/40
f 79/10/41 100/31/41 84/15/41
f 82/13/42 81/12/42 92/23/42
f 72/4/43 94/25/43 71/3/43
f 94/25/44 96/27/44 93/24/44
f 96/27/45 95/26/45 93/24/45
f 101/32/46 86/17/46 98/29/46
usemtl 5_left_leg_1_5_le.002_5_leg.png
f 1/33/47 2/34/47 3/35/47
f 1/33/48 3/35/48 4/36/48
f 5/37/49 6/38/49 4/36/49
f 7/39/50 4/36/50 6/38/50
f 7/39/51 6/38/51 8/40/51
f 8/40/52 6/38/52 9/41/52
f 10/42/53 8/40/53 9/41/53
f 4/36/54 3/35/54 5/37/54
f 1/33/55 4/36/55 11/43/55
f 12/44/56 8/40/56 10/42/56
f 8/40/57 12/44/57 7/39/57
f 11/43/58 7/39/58 12/44/58
f 11/43/59 4/36/59 7/39/59
usemtl 5_left_leg_12_5_l.002_5_leg.png
f 13/45/60 14/46/60 15/47/60
f 16/48/61 17/49/61 14/46/61
f 18/50/62 19/51/62 15/47/62
f 19/51/63 13/45/63 15/47/63
f 20/52/64 21/53/64 22/54/64
f 23/55/65 22/54/65 24/56/65
f 20/52/66 22/54/66 23/55/66
f 13/45/67 25/57/67 16/48/67
f 26/58/68 27/59/68 28/60/68
f 29/61/69 20/52/69 30/62/69
f 30/62/70 20/52/70 27/59/70
f 31/63/71 29/61/71 30/62/71
f 27/59/72 23/55/72 28/60/72
f 23/55/73 24/56/73 28/60/73
f 32/64/74 28/60/74 16/48/74
f 29/61/75 33/65/75 20/52/75
f 20/52/76 23/55/76 27/59/76
f 28/60/77 24/56/77 16/48/77
f 32/64/78 16/48/78 34/66/78
f 20/52/79 33/65/79 21/53/79
f 33/65/80 35/67/80 21/53/80
f 34/66/81 16/48/81 25/57/81
f 31/63/82 30/62/82 26/58/82
f 26/58/83 30/62/83 27/59/83
f 25/57/84 36/68/84 34/66/84
f 26/58/85 28/60/85 37/69/85
f 28/60/86 32/64/86 37/69/86
f 14/46/87 13/45/87 16/48/87
f 13/45/88 19/51/88 25/57/88
f 19/51/89 18/50/89 25/57/89
f 36/68/90 25/57/90 18/50/90
usemtl 5_left_leg_0_5_le.002_5_leg.png
f 38/70/91 39/71/91 40/72/91
f 39/71/92 41/73/92 40/72/92
f 42/74/93 41/73/93 43/75/93
f 44/76/94 45/77/94 46/78/94
f 43/75/95 41/73/95 39/71/95
f 47/79/96 44/76/96 48/80/96
f 38/70/97 49/81/97 39/71/97
f 50/82/98 44/76/98 46/78/98
f 48/80/99 44/76/99 50/82/99
f 47/79/100 45/77/100 44/76/100
f 51/83/101 43/75/101 39/71/101
f 39/71/102 49/81/102 51/83/102
f 52/84/103 53/85/103 47/79/103
f 53/85/104 45/77/104 47/79/104
usemtl 5_left_leg_11_5_l.002_5_leg.png
f 54/86/105 55/87/105 56/88/105
f 57/89/106 56/88/106 55/87/106
f 58/90/107 59/91/107 60/92/107
f 60/92/108 57/89/108 61/93/108
f 62/94/109 63/95/109 64/96/109
f 63/95/110 54/86/110 64/96/110
f 64/96/111 54/86/111 56/88/111
f 57/89/112 60/92/112 56/88/112
f 60/92/113 64/96/113 56/88/113
f 58/90/114 60/92/114 61/93/114
f 60/92/115 59/91/115 64/96/115
f 59/91/116 62/94/116 64/96/116
usemtl 5_left_leg_10_5_l.002_5_leg.png
f 65/97/117 66/98/117 67/99/117
f 68/100/118 65/97/118 67/99/118
usemtl 5_left_leg_1.002
f 102/101/119 103/102/119 104/103/119
f 105/101/120 106/102/120 107/103/120
f 108/101/121 104/104/121 103/103/121
f 108/101/122 103/103/122 109/102/122
f 110/101/123 111/104/123 104/103/123
f 110/101/124 104/103/124 108/102/124
f 112/101/125 113/104/125 111/103/125
f 112/101/126 111/103/126 110/102/126
f 112/101/127 114/102/127 113/104/127
f 114/102/128 115/103/128 113/104/128
f 116/101/129 117/102/129 115/103/129
f 116/101/130 115/103/130 114/104/130
usemtl 5_left_leg_13_5_l.002_5_leg.png
f 118/105/131 119/106/131 120/107/131
f 121/108/132 120/107/132 119/106/132
f 121/108/133 119/106/133 122/109/133
